<svg width="486" height="486" viewBox="0 0 486 486" fill="none" xmlns="http://www.w3.org/2000/svg">
<path d="M0 0H486V486H0V0Z" fill="#944DFF"/>
<path d="M190.375 375C187.458 375 186 373.542 186 370.625V146.1C186 143.183 187.458 141.725 190.375 141.725H287.15C289.95 141.725 292.283 142.658 294.15 144.525L329.15 179.525C331.133 181.508 332.125 183.842 332.125 186.525V246.9C332.125 249.7 331.133 252.033 329.15 253.9L294.15 288.9C292.283 290.883 289.95 291.875 287.15 291.875H244.275V370.625C244.275 373.542 242.817 375 239.9 375H190.375ZM257.4 244.275C267.083 244.275 273.675 242.35 277.175 238.5C280.792 234.65 282.6 227.358 282.6 216.625C282.6 205.892 280.792 198.6 277.175 194.75C273.675 190.9 267.083 188.975 257.4 188.975C247.833 188.975 241.242 190.9 237.625 194.75C234.125 198.6 232.375 205.892 232.375 216.625C232.375 227.358 234.125 234.65 237.625 238.5C241.242 242.35 247.833 244.275 257.4 244.275Z" fill="white"/>
</svg>
